<?xml version="1.0" encoding="utf-8"?>
<!-- Generator: Adobe Illustrator 27.5.0, SVG Export Plug-In . SVG Version: 6.00 Build 0)  -->
<svg version="1.1" xmlns="http://www.w3.org/2000/svg" xmlns:xlink="http://www.w3.org/1999/xlink" x="0px" y="0px"
	 viewBox="0 0 750 500" style="enable-background:new 0 0 750 500;" xml:space="preserve">
<g id="Floor">
	
		<line style="fill:none;stroke:#263238;stroke-width:2.5;stroke-linecap:round;stroke-linejoin:round;stroke-miterlimit:10;" x1="27.537" y1="448.668" x2="722.463" y2="448.668"/>
</g>
<g id="Icon">
	<g>
		
			<ellipse transform="matrix(0.2298 -0.9732 0.9732 0.2298 -19.7479 195.3457)" style="fill:none;stroke:#9ABAE3;stroke-width:2.5;stroke-linecap:round;stroke-linejoin:round;stroke-miterlimit:10;" cx="113.541" cy="110.149" rx="67.182" ry="67.182"/>
		<path style="fill:none;stroke:#9ABAE3;stroke-width:2.5;stroke-linecap:round;stroke-linejoin:round;stroke-miterlimit:10;" d="
			M180.717,110.151c0,18.216-7.249,34.727-19.021,46.835c-12.202,12.551-29.264,20.35-48.151,20.35
			c-18.887,0-35.962-7.799-48.164-20.35c-11.773-12.108-19.021-28.619-19.021-46.835s7.249-34.727,19.021-46.835
			c12.202-12.551,29.277-20.35,48.164-20.35c18.887,0,35.949,7.799,48.151,20.35C173.469,75.424,180.717,91.935,180.717,110.151z"/>
		
			<ellipse style="fill:none;stroke:#9ABAE3;stroke-width:2.5;stroke-linecap:round;stroke-linejoin:round;stroke-miterlimit:10;" cx="113.541" cy="110.149" rx="35.078" ry="67.182"/>
		
			<line style="fill:none;stroke:#9ABAE3;stroke-width:2.5;stroke-linecap:round;stroke-linejoin:round;stroke-miterlimit:10;" x1="113.541" y1="42.967" x2="113.541" y2="177.331"/>
		
			<line style="fill:none;stroke:#9ABAE3;stroke-width:2.5;stroke-linecap:round;stroke-linejoin:round;stroke-miterlimit:10;" x1="46.359" y1="110.149" x2="180.723" y2="110.149"/>
		<g>
			<path style="fill:none;stroke:#9ABAE3;stroke-width:2.5;stroke-linecap:round;stroke-linejoin:round;stroke-miterlimit:10;" d="
				M65.381,63.316c10.726,11.92,28.311,19.693,48.164,19.693s37.425-7.772,48.151-19.693"/>
			<path style="fill:none;stroke:#9ABAE3;stroke-width:2.5;stroke-linecap:round;stroke-linejoin:round;stroke-miterlimit:10;" d="
				M161.696,156.987c-12.202,12.551-29.264,20.35-48.151,20.35c-18.887,0-35.962-7.799-48.164-20.35
				c10.726-11.92,28.311-19.693,48.164-19.693C133.399,137.294,150.971,145.066,161.696,156.987z"/>
		</g>
	</g>
</g>
<g id="Plant">
	<g>
		<g>
			<g>
				<g>
					
						<path style="fill:#EC644E;stroke:#263238;stroke-width:2.5;stroke-linecap:round;stroke-linejoin:round;stroke-miterlimit:10;" d="
						M65.005,379.452c1.116,1.076,1.995,2.43,2.511,3.955c1.552,4.696-0.732,9.082-4.365,10.124
						c-3.665,1.038-7.69-1.466-9.733-5.839c-0.652-1.434-0.985-2.903-0.973-4.294c-3.251-1.155-6.417-3.553-8.645-6.921
						c-2.232-3.392-2.942-7.09-1.821-10.161c-1.541-0.802-2.948-1.902-4.069-3.254c-2.374-2.851-2.806-6.158-1.091-8.589
						c-0.967-0.475-1.863-1.125-2.618-1.916c-2.269-2.36-2.303-5.201,0.202-6.328c2.485-1.121,6.455,0.055,8.59,2.593
						c0.716,0.841,1.154,1.716,1.311,2.549c3.907,0.127,7.958,2.184,10.04,5.359c0.991,1.496,1.443,3.044,1.432,4.479
						c4.077,1.245,7.702,4.192,9.458,7.998C66.989,372.988,66.61,376.715,65.005,379.452z"/>
					
						<path style="fill:none;stroke:#263238;stroke-width:2.5;stroke-linecap:round;stroke-linejoin:round;stroke-miterlimit:10;" d="
						M65.005,379.452c1.116,1.076,1.995,2.43,2.511,3.955c1.552,4.696-0.732,9.082-4.365,10.124
						c-3.665,1.038-7.69-1.466-9.733-5.839c-0.652-1.434-0.985-2.903-0.973-4.294c-3.251-1.155-6.417-3.553-8.645-6.921
						c-2.232-3.392-2.942-7.09-1.821-10.161c-1.541-0.802-2.948-1.902-4.069-3.254c-2.374-2.851-2.806-6.158-1.091-8.589
						c-0.967-0.475-1.863-1.125-2.618-1.916c-2.269-2.36-2.303-5.201,0.202-6.328c2.485-1.121,6.455,0.055,8.59,2.593
						c0.716,0.841,1.154,1.716,1.311,2.549c3.907,0.127,7.958,2.184,10.04,5.359c0.991,1.496,1.443,3.044,1.432,4.479
						c4.077,1.245,7.702,4.192,9.458,7.998C66.989,372.988,66.61,376.715,65.005,379.452z"/>
				</g>
				<path style="fill:none;stroke:#263238;stroke-width:2.5;stroke-linecap:round;stroke-linejoin:round;stroke-miterlimit:10;" d="
					M42.316,354.795c0,0,29.729,35.412,29.333,65.112"/>
			</g>
			<g>
				
					<path style="fill:#EC644E;stroke:#263238;stroke-width:2.5;stroke-linecap:round;stroke-linejoin:round;stroke-miterlimit:10;" d="
					M74.98,346.528c0.986,1.499,1.694,3.303,2.002,5.292c0.943,6.089-2.237,11.633-7.09,12.385
					c-4.868,0.754-9.575-3.569-10.517-9.659c-0.308-1.989-0.178-3.923,0.323-5.652c-3.313-2.391-5.843-6.501-6.606-11.434
					c-0.77-4.974,0.423-9.687,2.916-12.977c-1.065-1.528-1.812-3.395-2.131-5.451c-0.674-4.355,0.765-8.432,3.406-10.672
					c-0.558-0.932-0.954-2.055-1.146-3.291c-0.574-3.71,0.965-7.046,3.45-7.43c2.47-0.382,4.946,2.331,5.52,6.042
					c0.192,1.237,0.154,2.426-0.097,3.484c3.194,1.336,5.799,4.787,6.473,9.142c0.318,2.057,0.17,4.062-0.368,5.838
					c3.357,2.385,5.919,6.517,6.689,11.49C78.569,338.567,77.401,343.249,74.98,346.528z"/>
				<path style="fill:none;stroke:#263238;stroke-width:2.5;stroke-linecap:round;stroke-linejoin:round;stroke-miterlimit:10;" d="
					M63.654,321.259c0,0,8.292,31.964,7.995,98.649"/>
			</g>
			<g>
				<g>
					<path style="fill:#9ABAE3;" d="M97.315,365.129c-0.12,1.553-0.594,3.176-1.41,4.737c-2.525,4.757-7.201,7.262-11.21,5.798
						c-3.999-1.47-5.978-6.624-3.649-11.761c0.763-1.667,1.894-3.107,3.245-4.209c-1.357-3.244-1.158-7.501,1.307-11.604
						c2.47-4.132,6.733-7.107,11.132-8.171c0.226-1.627,0.973-3.338,2.262-4.945c2.72-3.414,7.227-5.412,11.191-5.319
						c0.322-0.925,0.938-1.878,1.831-2.778c2.673-2.713,6.914-3.806,9.19-2.451c2.27,1.348,1.682,4.492-1.034,7.044
						c-0.905,0.854-1.927,1.545-2.99,2.037c1.311,2.78,0.367,6.451-2.454,9.555c-1.335,1.47-2.923,2.647-4.603,3.483
						c0.736,3.482-0.385,7.597-3.035,11.298C104.446,361.517,100.9,364.041,97.315,365.129z"/>
					
						<path style="fill:#EC644E;stroke:#263238;stroke-width:2.5;stroke-linecap:round;stroke-linejoin:round;stroke-miterlimit:10;" d="
						M97.315,365.129c-0.12,1.553-0.594,3.176-1.41,4.737c-2.525,4.757-7.201,7.262-11.21,5.798
						c-3.999-1.47-5.978-6.624-3.649-11.761c0.763-1.667,1.894-3.107,3.245-4.209c-1.357-3.244-1.158-7.501,1.307-11.604
						c2.47-4.132,6.733-7.107,11.132-8.171c0.226-1.627,0.973-3.338,2.262-4.945c2.72-3.414,7.227-5.412,11.191-5.319
						c0.322-0.925,0.938-1.878,1.831-2.778c2.673-2.713,6.914-3.806,9.19-2.451c2.27,1.348,1.682,4.492-1.034,7.044
						c-0.905,0.854-1.927,1.545-2.99,2.037c1.311,2.78,0.367,6.451-2.454,9.555c-1.335,1.47-2.923,2.647-4.603,3.483
						c0.736,3.482-0.385,7.597-3.035,11.298C104.446,361.517,100.9,364.041,97.315,365.129z"/>
				</g>
				<path style="fill:none;stroke:#263238;stroke-width:2.5;stroke-linecap:round;stroke-linejoin:round;stroke-miterlimit:10;" d="
					M114.154,330.945c0,0-37.877,29.469-42.446,88.968"/>
			</g>
		</g>
		<g>
			
				<rect x="47.308" y="399.866" style="fill:none;stroke:#263238;stroke-width:2.5;stroke-linecap:round;stroke-linejoin:round;stroke-miterlimit:10;" width="47.808" height="13.542"/>
			<rect x="47.303" y="399.869" style="fill:#FFFFFF;" width="6.22" height="13.54"/>
			
				<rect x="47.308" y="399.866" style="fill:#9ABAE3;stroke:#263238;stroke-width:2.5;stroke-linecap:round;stroke-linejoin:round;stroke-miterlimit:10;" width="47.808" height="13.542"/>
		</g>
		<g>
			
				<polygon style="fill:#9ABAE3;stroke:#263238;stroke-width:2.5;stroke-linecap:round;stroke-linejoin:round;stroke-miterlimit:10;" points="
				89.209,461.637 53.215,461.637 51.818,413.408 90.605,413.408 			"/>
			<polygon style="fill:#FFFFFF;" points="59.483,461.639 53.213,461.639 51.813,413.409 58.093,413.409 			"/>
			
				<polygon style="fill:none;stroke:#263238;stroke-width:2.5;stroke-linecap:round;stroke-linejoin:round;stroke-miterlimit:10;" points="
				89.209,461.637 53.215,461.637 51.818,413.408 90.605,413.408 			"/>
		</g>
	</g>
</g>
<g id="Device">
	<g>
		
			<path style="fill:#EC644E;stroke:#263238;stroke-width:2.5;stroke-linecap:round;stroke-linejoin:round;stroke-miterlimit:10;" d="
			M644.881,420.478H105.118v8.818c0,10.345,8.386,18.731,18.731,18.731H626.15c10.345,0,18.731-8.386,18.731-18.731V420.478z"/>
		
			<rect x="320.892" y="420.478" style="fill:#9ABAE3;stroke:#263238;stroke-width:2.5;stroke-linecap:round;stroke-linejoin:round;stroke-miterlimit:10;" width="108.216" height="13.774"/>
		
			<path style="fill:#EC644E;stroke:#263238;stroke-width:2.5;stroke-linecap:round;stroke-linejoin:round;stroke-miterlimit:10;" d="
			M606.143,120.271H143.857c-5.311,0-9.617,4.305-9.617,9.617v290.59H615.76v-290.59
			C615.76,124.577,611.454,120.271,606.143,120.271z"/>
		
			<rect x="153.158" y="139.516" style="fill:#FFFFFF;stroke:#263238;stroke-width:2.5;stroke-linecap:round;stroke-linejoin:round;stroke-miterlimit:10;" width="443.683" height="261.718"/>
	</g>
</g>
<g id="Tab">
	<g>
		
			<rect x="215.295" y="73.939" style="fill:#FFFFFF;stroke:#263238;stroke-width:2.5;stroke-linecap:round;stroke-linejoin:round;stroke-miterlimit:10;" width="319.41" height="327.294"/>
		
			<line style="fill:none;stroke:#263238;stroke-width:2.5;stroke-linecap:round;stroke-linejoin:round;stroke-miterlimit:10;" x1="215.816" y1="92.325" x2="529.095" y2="92.325"/>
		<path style="fill:#EC644E;" d="M229.514,83.512c0,1.668-1.352,3.02-3.02,3.02c-1.668,0-3.02-1.352-3.02-3.02
			c0-1.668,1.352-3.02,3.02-3.02C228.162,80.492,229.514,81.844,229.514,83.512z"/>
		<path style="fill:#9ABAE3;" d="M242.787,83.512c0,1.668-1.352,3.02-3.02,3.02c-1.668,0-3.02-1.352-3.02-3.02
			c0-1.668,1.352-3.02,3.02-3.02C241.435,80.492,242.787,81.844,242.787,83.512z"/>
		<path style="fill:#263238;" d="M256.06,83.512c0,1.668-1.352,3.02-3.02,3.02c-1.668,0-3.02-1.352-3.02-3.02
			c0-1.668,1.352-3.02,3.02-3.02C254.708,80.492,256.06,81.844,256.06,83.512z"/>
		
			<rect x="215.816" y="92.268" style="fill:#EC644E;stroke:#263238;stroke-width:2.5;stroke-linecap:round;stroke-linejoin:round;stroke-miterlimit:10;" width="318.889" height="42.695"/>
		<g>
			<path style="fill:#FFFFFF;" d="M344.356,117.976c0,0.814-0.17,1.514-0.509,2.1c-0.34,0.585-0.806,1.065-1.4,1.438
				c-0.594,0.373-1.285,0.649-2.074,0.827c-0.789,0.178-1.625,0.267-2.506,0.267h-8.881V104.54h10.484
				c0.628,0,1.196,0.136,1.705,0.407c0.509,0.271,0.941,0.623,1.298,1.056c0.356,0.433,0.632,0.925,0.827,1.476
				c0.195,0.552,0.293,1.116,0.293,1.693c0,0.848-0.216,1.658-0.649,2.43c-0.433,0.772-1.082,1.353-1.947,1.743
				c1.034,0.305,1.853,0.836,2.456,1.59C344.055,115.69,344.356,116.704,344.356,117.976z M333.948,108.764v2.774h3.384
				c0.339,0,0.649-0.093,0.929-0.28c0.28-0.186,0.42-0.56,0.42-1.12c0-0.492-0.119-0.844-0.356-1.056
				c-0.238-0.212-0.517-0.318-0.84-0.318H333.948z M339.317,116.958c0-0.441-0.119-0.81-0.356-1.107
				c-0.238-0.296-0.543-0.445-0.916-0.445h-4.097v3.028h3.919c0.407,0,0.751-0.127,1.03-0.382
				C339.177,117.798,339.317,117.433,339.317,116.958z"/>
			<path style="fill:#FFFFFF;" d="M348.326,122.608V104.54h4.962v13.742h8.194v4.326H348.326z"/>
			<path style="fill:#FFFFFF;" d="M372.908,122.76c-1.374,0-2.621-0.263-3.741-0.789c-1.12-0.526-2.078-1.217-2.876-2.074
				c-0.797-0.857-1.417-1.836-1.857-2.939c-0.441-1.103-0.662-2.239-0.662-3.41c0-1.187,0.229-2.332,0.687-3.435
				c0.458-1.103,1.098-2.074,1.921-2.914c0.823-0.84,1.798-1.51,2.927-2.011c1.128-0.5,2.362-0.751,3.703-0.751
				c1.374,0,2.621,0.263,3.741,0.789c1.12,0.526,2.078,1.222,2.876,2.087c0.797,0.865,1.412,1.849,1.845,2.952
				c0.432,1.103,0.649,2.231,0.649,3.385c0,1.188-0.229,2.329-0.687,3.423c-0.458,1.094-1.094,2.061-1.909,2.901
				s-1.785,1.514-2.914,2.023C375.482,122.506,374.248,122.76,372.908,122.76z M368.811,113.599c0,0.611,0.085,1.201,0.255,1.769
				c0.169,0.569,0.424,1.073,0.763,1.514c0.339,0.441,0.767,0.798,1.285,1.069c0.517,0.272,1.132,0.407,1.845,0.407
				c0.713,0,1.332-0.14,1.858-0.42c0.525-0.28,0.954-0.645,1.285-1.094c0.331-0.449,0.577-0.963,0.738-1.539
				c0.161-0.576,0.242-1.162,0.242-1.756c0-0.611-0.085-1.2-0.255-1.768c-0.17-0.568-0.428-1.069-0.776-1.502
				c-0.348-0.433-0.78-0.78-1.298-1.043c-0.517-0.263-1.124-0.394-1.819-0.394c-0.713,0-1.328,0.136-1.845,0.407
				c-0.517,0.271-0.946,0.632-1.285,1.082c-0.34,0.449-0.589,0.958-0.751,1.527C368.891,112.425,368.811,113.006,368.811,113.599z"
				/>
			<path style="fill:#FFFFFF;" d="M398.28,121.106c-1.29,1.086-2.774,1.629-4.453,1.629c-1.171,0-2.29-0.207-3.359-0.623
				c-1.069-0.415-2.002-1.022-2.799-1.819c-0.798-0.797-1.434-1.772-1.909-2.926c-0.475-1.154-0.712-2.468-0.712-3.944
				c0-1.272,0.237-2.456,0.712-3.55c0.475-1.094,1.128-2.044,1.959-2.85c0.831-0.806,1.811-1.442,2.939-1.909
				c1.128-0.466,2.345-0.7,3.651-0.7c0.814,0,1.595,0.089,2.341,0.267c0.746,0.178,1.438,0.441,2.074,0.789
				c0.636,0.348,1.209,0.763,1.718,1.247c0.509,0.484,0.925,1.031,1.247,1.641l-3.69,2.825c-0.356-0.713-0.891-1.285-1.603-1.718
				c-0.713-0.433-1.468-0.649-2.265-0.649c-0.594,0-1.137,0.119-1.629,0.356c-0.492,0.238-0.916,0.569-1.272,0.993
				c-0.356,0.424-0.637,0.929-0.84,1.514c-0.204,0.585-0.305,1.226-0.305,1.921c0,0.712,0.102,1.357,0.305,1.934
				c0.203,0.577,0.487,1.073,0.852,1.489c0.365,0.416,0.802,0.738,1.31,0.967c0.509,0.229,1.077,0.344,1.705,0.344
				c1.441,0,2.714-0.593,3.817-1.781h-3.13v-3.563h7.431v9.619h-4.097V121.106z"/>
		</g>
		<g>
			
				<rect x="240.857" y="104.543" style="fill:#9ABAE3;stroke:#263238;stroke-width:2.5;stroke-linecap:round;stroke-linejoin:round;stroke-miterlimit:10;" width="70.873" height="70.873"/>
			<g>
				<g>
					<path style="fill:#FFFFFF;" d="M289.787,130.248c0,7.453-6.041,13.494-13.494,13.494c-7.452,0-13.494-6.041-13.494-13.494
						c0-7.453,6.041-13.494,13.494-13.494C283.746,116.755,289.787,122.796,289.787,130.248z"/>
					<path style="fill:#FFFFFF;" d="M299.611,167.47v6.63l-46.636-0.02v-6.611c0-12.846,10.433-23.318,23.318-23.318
						C289.179,144.152,299.611,154.624,299.611,167.47z"/>
				</g>
			</g>
		</g>
		<g>
			
				<line style="fill:none;stroke:#263238;stroke-width:2.5;stroke-linecap:round;stroke-linejoin:round;stroke-miterlimit:10;" x1="272.063" y1="212.13" x2="311.73" y2="212.13"/>
			
				<line style="fill:none;stroke:#263238;stroke-width:2.5;stroke-linecap:round;stroke-linejoin:round;stroke-miterlimit:10;" x1="240.857" y1="220.803" x2="311.73" y2="220.803"/>
			
				<line style="fill:none;stroke:#263238;stroke-width:2.5;stroke-linecap:round;stroke-linejoin:round;stroke-miterlimit:10;" x1="240.857" y1="229.477" x2="311.73" y2="229.477"/>
			
				<line style="fill:none;stroke:#263238;stroke-width:2.5;stroke-linecap:round;stroke-linejoin:round;stroke-miterlimit:10;" x1="240.857" y1="238.151" x2="311.73" y2="238.151"/>
			
				<line style="fill:none;stroke:#263238;stroke-width:2.5;stroke-linecap:round;stroke-linejoin:round;stroke-miterlimit:10;" x1="240.857" y1="246.825" x2="311.73" y2="246.825"/>
			
				<line style="fill:none;stroke:#263238;stroke-width:2.5;stroke-linecap:round;stroke-linejoin:round;stroke-miterlimit:10;" x1="240.857" y1="255.498" x2="311.73" y2="255.498"/>
			
				<line style="fill:none;stroke:#263238;stroke-width:2.5;stroke-linecap:round;stroke-linejoin:round;stroke-miterlimit:10;" x1="240.857" y1="319.876" x2="311.73" y2="319.876"/>
			
				<line style="fill:none;stroke:#263238;stroke-width:2.5;stroke-linecap:round;stroke-linejoin:round;stroke-miterlimit:10;" x1="240.857" y1="328.55" x2="311.73" y2="328.55"/>
			
				<line style="fill:none;stroke:#263238;stroke-width:2.5;stroke-linecap:round;stroke-linejoin:round;stroke-miterlimit:10;" x1="240.857" y1="337.224" x2="311.73" y2="337.224"/>
			
				<line style="fill:none;stroke:#263238;stroke-width:2.5;stroke-linecap:round;stroke-linejoin:round;stroke-miterlimit:10;" x1="240.857" y1="379.62" x2="311.73" y2="379.62"/>
			
				<line style="fill:none;stroke:#263238;stroke-width:2.5;stroke-linecap:round;stroke-linejoin:round;stroke-miterlimit:10;" x1="240.857" y1="388.294" x2="289.787" y2="388.294"/>
			
				<line style="fill:none;stroke:#263238;stroke-width:2.5;stroke-linecap:round;stroke-linejoin:round;stroke-miterlimit:10;" x1="240.857" y1="345.897" x2="311.73" y2="345.897"/>
			
				<line style="fill:none;stroke:#263238;stroke-width:2.5;stroke-linecap:round;stroke-linejoin:round;stroke-miterlimit:10;" x1="240.857" y1="354.571" x2="311.73" y2="354.571"/>
			
				<line style="fill:none;stroke:#263238;stroke-width:2.5;stroke-linecap:round;stroke-linejoin:round;stroke-miterlimit:10;" x1="240.857" y1="363.245" x2="289.787" y2="363.245"/>
			
				<line style="fill:none;stroke:#263238;stroke-width:2.5;stroke-linecap:round;stroke-linejoin:round;stroke-miterlimit:10;" x1="240.857" y1="264.172" x2="289.787" y2="264.172"/>
			
				<line style="fill:none;stroke:#263238;stroke-width:2.5;stroke-linecap:round;stroke-linejoin:round;stroke-miterlimit:10;" x1="329.564" y1="149.394" x2="509.143" y2="149.394"/>
			
				<line style="fill:none;stroke:#263238;stroke-width:2.5;stroke-linecap:round;stroke-linejoin:round;stroke-miterlimit:10;" x1="329.564" y1="158.068" x2="509.143" y2="158.068"/>
			
				<line style="fill:none;stroke:#263238;stroke-width:2.5;stroke-linecap:round;stroke-linejoin:round;stroke-miterlimit:10;" x1="329.564" y1="166.742" x2="509.143" y2="166.742"/>
			
				<line style="fill:none;stroke:#263238;stroke-width:2.5;stroke-linecap:round;stroke-linejoin:round;stroke-miterlimit:10;" x1="329.564" y1="175.415" x2="487.199" y2="175.415"/>
			
				<line style="fill:none;stroke:#263238;stroke-width:2.5;stroke-linecap:round;stroke-linejoin:round;stroke-miterlimit:10;" x1="329.564" y1="212.13" x2="509.143" y2="212.13"/>
			
				<line style="fill:none;stroke:#263238;stroke-width:2.5;stroke-linecap:round;stroke-linejoin:round;stroke-miterlimit:10;" x1="329.564" y1="220.803" x2="509.143" y2="220.803"/>
			
				<line style="fill:none;stroke:#263238;stroke-width:2.5;stroke-linecap:round;stroke-linejoin:round;stroke-miterlimit:10;" x1="329.564" y1="229.477" x2="509.143" y2="229.477"/>
			
				<line style="fill:none;stroke:#263238;stroke-width:2.5;stroke-linecap:round;stroke-linejoin:round;stroke-miterlimit:10;" x1="329.564" y1="238.151" x2="509.143" y2="238.151"/>
			
				<line style="fill:none;stroke:#263238;stroke-width:2.5;stroke-linecap:round;stroke-linejoin:round;stroke-miterlimit:10;" x1="329.564" y1="246.825" x2="509.143" y2="246.825"/>
			
				<line style="fill:none;stroke:#263238;stroke-width:2.5;stroke-linecap:round;stroke-linejoin:round;stroke-miterlimit:10;" x1="329.564" y1="255.498" x2="509.143" y2="255.498"/>
			
				<line style="fill:none;stroke:#263238;stroke-width:2.5;stroke-linecap:round;stroke-linejoin:round;stroke-miterlimit:10;" x1="329.564" y1="264.172" x2="487.199" y2="264.172"/>
			
				<rect x="240.889" y="280.198" style="fill:#FFFFFF;stroke:#263238;stroke-width:2.5;stroke-linecap:round;stroke-linejoin:round;stroke-miterlimit:10;" width="268.222" height="24.197"/>
			<g>
				<path style="fill:#EC644E;" d="M249.02,187.349h6.463l8.931,25.778h-7.189l-1.561-5.047h-6.862l-1.525,5.047h-7.225
					L249.02,187.349z M254.539,203.36l-2.287-7.988l-2.397,7.988H254.539z"/>
			</g>
			<g>
				
					<rect x="328.986" y="319.876" style="fill:#9ABAE3;stroke:#263238;stroke-width:2.5;stroke-linecap:round;stroke-linejoin:round;stroke-miterlimit:10;" width="180.157" height="68.418"/>
				
					<polygon style="fill:#FFFFFF;stroke:#263238;stroke-width:2.5;stroke-linecap:round;stroke-linejoin:round;stroke-miterlimit:10;" points="
					509.14,388.29 328.99,388.29 390.13,350.93 430.77,375.76 458.76,360.11 				"/>
				
					<ellipse transform="matrix(0.1606 -0.987 0.987 0.1606 66.3535 765.1796)" style="fill:#FFFFFF;stroke:#263238;stroke-width:2.5;stroke-linecap:round;stroke-linejoin:round;stroke-miterlimit:10;" cx="483.073" cy="343.576" rx="9.323" ry="9.323"/>
			</g>
		</g>
	</g>
</g>
<g id="Speech_Bubble">
	<g>
		
			<path style="fill:#FFFFFF;stroke:#263238;stroke-width:2.5;stroke-linecap:round;stroke-linejoin:round;stroke-miterlimit:10;" d="
			M689.936,52.662c-10.309-3.947-23.869-2.861-32.561,4.343c-7.741,6.411-10.272,18.001-6.606,27.248
			c4.373,11.028,16.982,17.043,28.401,15.134c0.756-0.128-0.66,5.171-3.953,8.149c-1.293,1.169-2.586,2.269-4.105,3.044
			c7.021-0.549,13.883-3.526,15.756-11.077c8.37-2.616,20.709-10.303,21.026-21.276C708.229,66.826,700.348,56.639,689.936,52.662z"
			/>
		<path style="fill:#EC644E;" d="M672.12,87.026l-8.265-8.265c-0.417-0.418-0.417-1.095,0-1.512l2.505-2.505
			c0.418-0.418,1.095-0.418,1.512,0l4.601,4.601c0.223,0.223,0.584,0.223,0.807,0l14.023-14.023c0.418-0.418,1.095-0.418,1.512,0
			l2.504,2.504c0.417,0.418,0.417,1.095,0,1.512l-17.687,17.687C673.215,87.443,672.538,87.443,672.12,87.026z"/>
	</g>
</g>
<g id="Character">
	<g>
		<g>
			<path style="fill:#263238;" d="M582.233,436.272l0.548,6.196c0,0,9.347-0.387,9.805-2.157S582.233,436.272,582.233,436.272z"/>
			<g>
				<g>
					<g>
						
							<polygon style="fill:#915A3F;stroke:#263238;stroke-width:2.5;stroke-linecap:round;stroke-linejoin:round;stroke-miterlimit:10;" points="
							536.067,436.877 540.174,458.061 584.063,456.941 582.183,435.701 						"/>
					</g>
					<g>
						
							<polygon style="fill:#EC644E;stroke:#263238;stroke-width:2.5;stroke-linecap:round;stroke-linejoin:round;stroke-miterlimit:10;" points="
							584.058,456.943 584.51,474.674 520.457,476.307 540.174,458.062 539.381,453.97 583.7,452.84 						"/>
						
							<path style="fill:none;stroke:#263238;stroke-width:2.5;stroke-linecap:round;stroke-linejoin:round;stroke-miterlimit:10;" d="
							M545.955,463.429c0,0-4.191-4.169-10.669-3.249"/>
						
							<path style="fill:none;stroke:#263238;stroke-width:2.5;stroke-linecap:round;stroke-linejoin:round;stroke-miterlimit:10;" d="
							M547.82,459.943c0,0-4.466-3.874-10.866-2.513"/>
						
							<path style="fill:#FFFFFF;stroke:#263238;stroke-width:2.5;stroke-linecap:round;stroke-linejoin:round;stroke-miterlimit:10;" d="
							M584.559,476.557l-0.5-19.615c-4.689,1.015-16.099,11.687-20.174,12.599c-4.075,0.912-9.07-1.548-12.357-1.111
							c-3.287,0.437-6.063,2.272-8.179,2.326c-2.116,0.054-6.817-5.031-11.93-4.592c-5.114,0.439-15.027,12.132-10.913,12.027
							C524.62,478.086,584.559,476.557,584.559,476.557z"/>
					</g>
				</g>
				<g>
					<g>
						<path style="fill:#9ABAE3;" d="M637.903,240.94c0,0-27.627,62.11-64.797,105.268c0,0,6.828,19.983,11.539,42.058
							c5.522,25.873,6.986,51.368,6.986,51.368c-5.008-9.098-21.796,3.241-38.265,6.395c-12.292,2.353-21.504-0.313-21.504-0.313
							s-21.983-86.403-18.956-103.055c2.55-14.025,36.035-79.788,47.29-101.721H637.903z"/>
					</g>
					<g>
						<path style="fill:#FFFFFF;" d="M519.289,342.643c-2.89,15.91,16.59,94.21,19.09,104.15c-4.07-0.37-6.52-1.08-6.52-1.08
							s-21.98-86.4-18.95-103.05c2.55-14.03,36.03-79.79,47.29-101.72h6.28C554.06,265.163,521.81,328.763,519.289,342.643z"/>
						<path style="fill:#FFFFFF;" d="M591.63,439.633c-0.23-0.42-0.49-0.8-0.78-1.13c0.24-0.04,0.47-0.08,0.7-0.1
							C591.609,439.203,591.63,439.633,591.63,439.633z"/>
					</g>
					<g>
						
							<path style="fill:none;stroke:#263238;stroke-width:2.5;stroke-linecap:round;stroke-linejoin:round;stroke-miterlimit:10;" d="
							M637.903,240.94c0,0-27.627,62.11-64.797,105.268c0,0,6.828,19.983,11.539,42.058c5.522,25.873,6.986,51.368,6.986,51.368
							c-5.008-9.098-21.796,3.241-38.265,6.395c-12.292,2.353-21.504-0.313-21.504-0.313s-21.983-86.403-18.956-103.055
							c2.55-14.025,36.035-79.788,47.29-101.721H637.903z"/>
					</g>
					
						<path style="fill:none;stroke:#263238;stroke-width:2.5;stroke-linecap:round;stroke-linejoin:round;stroke-miterlimit:10;" d="
						M625.218,241.518c0,0-31.532,60.478-62.454,94.73l-10.719,0.892l7.969,5.496l-6.779,4.316l7.352,2.219
						c0,0,10.012,19.902,12.866,41.073c2.854,21.17,3.687,38.296,3.687,38.296"/>
				</g>
			</g>
			<g>
				<g>
					<g>
						
							<polygon style="fill:#915A3F;stroke:#263238;stroke-width:2.5;stroke-linecap:round;stroke-linejoin:round;stroke-miterlimit:10;" points="
							618.405,439.777 619.971,461.059 663.875,461.056 664.536,439.775 						"/>
					</g>
					<g>
						
							<polygon style="fill:#EC644E;stroke:#263238;stroke-width:2.5;stroke-linecap:round;stroke-linejoin:round;stroke-miterlimit:10;" points="
							663.87,461.057 663.871,478.794 599.797,478.798 619.972,461.06 619.669,456.949 664.002,456.946 						"/>
						
							<path style="fill:none;stroke:#263238;stroke-width:2.5;stroke-linecap:round;stroke-linejoin:round;stroke-miterlimit:10;" d="
							M625.614,466.573c0,0-4.084-4.274-10.583-3.519"/>
						
							<path style="fill:none;stroke:#263238;stroke-width:2.5;stroke-linecap:round;stroke-linejoin:round;stroke-miterlimit:10;" d="
							M627.567,463.135c0,0-4.366-3.986-10.798-2.789"/>
						
							<path style="fill:#FFFFFF;stroke:#263238;stroke-width:2.5;stroke-linecap:round;stroke-linejoin:round;stroke-miterlimit:10;" d="
							M663.871,480.678l-0.001-19.621c-4.713,0.895-16.391,11.274-20.488,12.082s-9.027-1.778-12.324-1.425
							c-3.297,0.353-6.119,2.117-8.236,2.117c-2.117,0-6.687-5.203-11.81-4.894c-5.123,0.309-15.331,11.745-11.215,11.745
							C603.913,480.682,663.871,480.678,663.871,480.678z"/>
					</g>
				</g>
				<g>
					
						<path style="fill:#9ABAE3;stroke:#263238;stroke-width:2.5;stroke-linecap:round;stroke-linejoin:round;stroke-miterlimit:10;" d="
						M567.058,240.94h95.282c0,0,6.043,15.814,6.513,35.832c0.071,3.013-2.422,9.691-2.36,12.855
						c0.523,26.837,0.784,54.106-1.114,64.784c0,0,7.013,20.958,7.061,43.53c0.052,24.892-2.906,48.898-2.906,48.898
						c-2.411-9.727-22.358,0.731-35.263,0.731c-17.164,0-26.15-3.235-26.15-3.235s-3.205-71.656-3.882-79.551
						c-0.362-4.226-1.171-43.271-1.171-72.066c0-0.625-5.935-1.546-18.661-5.59"/>
					<path style="fill:#263238;" d="M665.515,442.973l-0.374,6.11c0,0,5.03,0.008,5.487-1.763
						C671.085,445.55,665.515,442.973,665.515,442.973z"/>
				</g>
				
					<line style="fill:none;stroke:#263238;stroke-width:2.5;stroke-linecap:round;stroke-linejoin:round;stroke-miterlimit:10;" x1="605.991" y1="253.59" x2="608.13" y2="292.004"/>
				
					<line style="fill:none;stroke:#263238;stroke-width:2.5;stroke-linecap:round;stroke-linejoin:round;stroke-miterlimit:10;" x1="591.348" y1="250.974" x2="593.487" y2="289.389"/>
				<path style="fill:none;stroke:#263238;stroke-width:2.5;stroke-linecap:round;stroke-linejoin:round;stroke-miterlimit:10;" d="
					M586.736,287.846c4.77,1.329,30.734,7.608,30.734,7.608"/>
				<path style="fill:none;stroke:#263238;stroke-width:2.5;stroke-linecap:round;stroke-linejoin:round;stroke-miterlimit:10;" d="
					M661.176,436.272c6.789-51.855-5.233-82.833-5.233-82.833s3.425-34.502,1.524-64.05c0,0,5.059-10.782-1.524-40.34"/>
				<path style="fill:none;stroke:#263238;stroke-width:2.5;stroke-linecap:round;stroke-linejoin:round;stroke-miterlimit:10;" d="
					M651.069,278.692c0,0-13.558-2.557-17.84-8.266c-4.281-5.709-4.757-15.195-4.757-15.195"/>
				<path style="fill:none;stroke:#263238;stroke-width:2.5;stroke-linecap:round;stroke-linejoin:round;stroke-miterlimit:10;" d="
					M555.102,270.181c0,0,11.788-2.557,15.51-8.266c3.723-5.709,4.136-15.195,4.136-15.195"/>
			</g>
		</g>
		<g>
			<g>
				<path style="fill:#263238;" d="M629.939,151.086c-5.652-0.563-8.914,5.044-14.702,3.225c-3.229-1.014-2.258-3.021-6.282-8.868
					c-2.762-4.014-8.057-1.726-11.54-8.876c-2.461-5.053-1.586-8.755,2.577-14.107c2.339-3.007-0.042-5.129,0.967-8.886
					c1.081-4.022,5.102-8.462,12.07-6.345c1.96,0.596,5.18-4.283,10.751-3.148c4.15,0.846,5.078,5.39,8.512,8.249
					c1.638,1.364,7.772,0.404,10.532,5.561c3.096,5.786-1.68,8.959-1.386,13.206c0.262,3.787,3.41,6.281,2.68,11.378
					C643.24,148.599,636.72,151.761,629.939,151.086z"/>
				<path style="fill:#263238;" d="M639.83,110.805c-0.005-1.493,4.202-1.65,6.217,1.007c2.014,2.657,1.326,4.748,0.643,4.88
					c-1.353,0.26-1.719-2.205-3.247-3.23C641.913,112.437,639.832,111.63,639.83,110.805z"/>
			</g>
			<g>
				<g>
					<g>
						
							<path style="fill:#915A3F;stroke:#263238;stroke-width:2.5;stroke-linecap:round;stroke-linejoin:round;stroke-miterlimit:10;" d="
							M502.432,189.171l-4.482-5.445c-6.086-4.927-18.537-13.305-19.633-20.723c-0.319-2.158,3.521-8.867,12.503-18.144
							c0,0-8.066-7.649-12.365-16.566c-1.609-3.337,2.231-7.742,6.233-5.528c8.312,4.598,21.794,21.709,22.433,21.306
							c3.494-2.204,13.475,11.266,13.475,11.266S513.413,177.352,502.432,189.171z"/>
						
							<path style="fill:#915A3F;stroke:#263238;stroke-width:2.5;stroke-linecap:round;stroke-linejoin:round;stroke-miterlimit:10;" d="
							M485.07,153.169c-3.541-0.608-7.875-0.442-8.515,4.056c-0.64,4.499,9.631,10.329,12.127,11.207
							c3.273,1.15,5.989-2.618,2.342-6.785c-3.316-3.79-4.427-5.028-4.427-5.028"/>
						
							<path style="fill:#915A3F;stroke:#263238;stroke-width:2.5;stroke-linecap:round;stroke-linejoin:round;stroke-miterlimit:10;" d="
							M491.333,145.217c-3.689-1.238-8.354-1.781-9.787,2.927c-1.433,4.708,8.592,12.654,11.118,14.008
							c3.312,1.775,6.844-1.807,3.634-6.873c-2.92-4.607-3.903-6.116-3.903-6.116"/>
						
							<path style="fill:#915A3F;stroke:#263238;stroke-width:2.5;stroke-linecap:round;stroke-linejoin:round;stroke-miterlimit:10;" d="
							M519.156,153.484c0,0-4.146-6.282-5.5-9.048c-1.354-2.766-8.203-8.245-11.135-11.196c-2.932-2.951-8.95-2.087-4.746,5.896
							c4.204,7.984,3.883,7.908,3.883,7.908s-1.914,4.091-0.392,9.54"/>
					</g>
					<g>
						<path style="fill:#EC644E;" d="M554.67,179.224c0,0-4.211,1.425-9.423-3.294"/>
					</g>
					<g>
						
							<path style="fill:#EC644E;stroke:#263238;stroke-width:2.5;stroke-linecap:round;stroke-linejoin:round;stroke-miterlimit:10;" d="
							M602.218,139.469c-3.698-2.949-9.383-4.967-18.828-1.874c-14.112,4.622-38.568,40.267-38.568,40.267l-22.51-22.881
							c-4.624,0.508-7.942,0.818-16.516,14.698c-14.758,23.892-19.914,10.629-19.914,10.629s-1.466,6.14,3.812,10.517
							c15.605,12.942,31.104,35.186,38.479,38.736c11.194,5.388,21.777,2.908,24.967,1.543c11.073-4.737,25.518-26.66,33.497-36.277
							C599.511,179.31,619.103,152.933,602.218,139.469z"/>
						<path style="fill:#FFFFFF;" d="M602.469,139.687c-3.494-1.073-8.06-1.142-14.137,0.851
							c-14.521,4.752-39.701,41.437-39.701,41.437l-23.154-23.552c-4.768,0.518-8.18,0.837-16.999,15.13
							c-15.19,24.581-21.291,12.559-21.291,12.559s0.296,0.465,0.904,3.115c-3.354-4.14-2.206-8.918-2.206-8.918
							s5.151,13.26,19.909-10.626c8.572-13.886,11.895-14.188,16.516-14.702l22.511,22.888c0,0,24.455-35.653,38.571-40.276
							c9.44-3.087,15.132-1.069,18.821,1.881C602.306,139.542,602.389,139.608,602.469,139.687z"/>
						
							<path style="fill:none;stroke:#263238;stroke-width:2.5;stroke-linecap:round;stroke-linejoin:round;stroke-miterlimit:10;" d="
							M602.218,139.469c-3.698-2.949-9.383-4.967-18.828-1.874c-14.112,4.622-38.568,40.267-38.568,40.267l-22.51-22.881
							c-4.624,0.508-7.942,0.818-16.516,14.698c-14.758,23.892-19.914,10.629-19.914,10.629s-1.466,6.14,3.812,10.517
							c15.605,12.942,31.104,35.186,38.479,38.736c11.194,5.388,21.777,2.908,24.967,1.543c11.073-4.737,25.518-26.66,33.497-36.277
							C599.511,179.31,619.103,152.933,602.218,139.469z"/>
						<path style="fill:#263238;" d="M484.822,181.82c-1.044-1.609,2.96-6.18,2.96-6.18l7.954,5.483
							C495.736,181.123,487.448,185.868,484.822,181.82z"/>
					</g>
				</g>
				<g>
					<g>
						<g>
							<path style="fill:#EC644E;" d="M650.36,146.156c20.428,13.649,17.325,40.749,18.305,67.841
								c0.589,16.27,9.619,42.428,5.186,51.687c0,0-0.363-8.726-67.859-5.04c-32.577,1.779-55.239-14.651-58.313-12.625
								c0,0-2.736,1.877,1.276-10.401c1.433-4.384,12.621-38.12,12.621-38.12c-3.859-11.712,13.783-43.832,24.969-54.55
								c5.271-5.05,8.607-9.047,26.965-5.339C627.228,142.381,637.907,137.836,650.36,146.156z"/>
						</g>
					</g>
					
						<path style="fill:none;stroke:#263238;stroke-width:2.5;stroke-linecap:round;stroke-linejoin:round;stroke-miterlimit:10;" d="
						M586.055,136.83c8.84-2.728,21.115,1.499,27.453,2.78c13.72,2.771,24.399-1.774,36.852,6.547
						c20.428,13.649,17.325,40.749,18.305,67.841c0.589,16.27,9.619,42.428,5.186,51.687c0,0-2.136-6.509-73.189-5.767
						c-32.624,0.341-49.909-13.924-52.983-11.897c0,0-4.416,1.195,1.276-10.401c4.462-9.091,13.971-38.36,13.971-38.36
						c-6.187-7.926,9.552-31.544,9.552-31.544"/>
					<path style="fill:#263238;" d="M674.991,265.699c0.566,3.319-7.557,3.459-7.557,3.459l-1.026-5.566
						C666.408,263.592,674.663,263.775,674.991,265.699z"/>
					
						<path style="fill:none;stroke:#263238;stroke-width:2.5;stroke-linecap:round;stroke-linejoin:round;stroke-miterlimit:10;" d="
						M579.309,202.55c5.919,0.548,20.278-0.987,30.582,1.096"/>
					
						<path style="fill:none;stroke:#263238;stroke-width:2.5;stroke-linecap:round;stroke-linejoin:round;stroke-miterlimit:10;" d="
						M598.128,206.005c0,0,9.807,1.535,12.85,3.179"/>
					<path style="fill:#263238;" d="M546.385,248.095c2.218-1.005,8.382,1.849,8.382,1.849l-1.899,4.56
						C552.868,254.503,544.295,249.042,546.385,248.095z"/>
					
						<path style="fill:none;stroke:#263238;stroke-width:2.5;stroke-linecap:round;stroke-linejoin:round;stroke-miterlimit:10;" d="
						M548.326,238.934c0,0,8.846,1.068,19.947,5.724c11.101,4.656,25.088,5.339,45.024,5.724"/>
					
						<path style="fill:none;stroke:#263238;stroke-width:2.5;stroke-linecap:round;stroke-linejoin:round;stroke-miterlimit:10;" d="
						M625.218,250.418c11.69,0,35.043-0.805,49.748,5.195"/>
				</g>
				<g>
					<g>
						<g>
							
								<path style="fill:#915A3F;stroke:#263238;stroke-width:2.5;stroke-linecap:round;stroke-linejoin:round;stroke-miterlimit:10;" d="
								M706.536,277.365c0,0,10.815,13.931,14.536,11.802c4.851-2.776-12.552-19.967-17.095-24.975L706.536,277.365z"/>
						</g>
						<g>
							<g>
								
									<path style="fill:#915A3F;stroke:#263238;stroke-width:2.5;stroke-linecap:round;stroke-linejoin:round;stroke-miterlimit:10;" d="
									M699.913,256.144c-3.752-7.029-8.323-14.921-8.323-14.921l-33.132,9.646c0,0,8.825,13.289,12.799,19.759
									c1.804,2.937,2.558,15.036,5.774,15.76c7.344,1.655,4.984-14.267,10.129-14.68c9.26-0.742,18.91,19.726,27.033,17.263
									C719.806,287.269,707.194,269.784,699.913,256.144z"/>
							</g>
							
								<path style="fill:#B5846B;stroke:#263238;stroke-width:2.5;stroke-linecap:round;stroke-linejoin:round;stroke-miterlimit:10;" d="
								M678.501,281.622c0,0,0.358-4.021-3.535-5.805"/>
						</g>
					</g>
					<g>
						
							<path style="fill:#EC644E;stroke:#263238;stroke-width:2.5;stroke-linecap:round;stroke-linejoin:round;stroke-miterlimit:10;" d="
							M635.066,142.259c12.845,0.364,25.096,1.018,33.634,17.525c8.538,16.507,13.074,39.719,15.328,44.573
							c2.254,4.854,17.408,43.109,17.408,43.109c-10.347-0.829-11.619,8.111-19.88,8.891c-8.262,0.78-24.072-1.027-23.456,4.287
							c0,0-11.534-33.099-13.204-38.381"/>
						
							<path style="fill:none;stroke:#263238;stroke-width:2.5;stroke-linecap:round;stroke-linejoin:round;stroke-miterlimit:10;" d="
							M631.123,140.758c8.799,0,28.041-0.382,36.579,16.126c8.538,16.508,14.072,42.62,16.326,47.475
							c2.254,4.854,17.408,43.109,17.408,43.109c-10.347-0.829-11.619,8.111-19.88,8.891c-8.262,0.78-24.072-1.027-23.456,4.287
							c0,0-11.534-33.099-13.204-38.381c-0.749-2.369-7.99-26.035-11.072-43.351"/>
						<path style="fill:#263238;" d="M657.6,261.601c0.841,2.027,8.209,0.677,8.209,0.677l-2.456-5.161
							C663.353,257.116,656.981,260.11,657.6,261.601z"/>
						<path style="fill:#263238;" d="M695.164,248.384l1.746,4.425c0,0,6.212-3.568,5.709-5.204
							C702.117,245.969,695.164,248.384,695.164,248.384z"/>
					</g>
				</g>
				
					<path style="fill:#915A3F;stroke:#263238;stroke-width:2.5;stroke-linecap:round;stroke-linejoin:round;stroke-miterlimit:10;" d="
					M588.507,136.257c0,0,1.967,17.855,15.251,26.355c17.67,11.306,68.599,4.809,68.599,4.809s-5.521-18.761-18.997-23.475
					c-14.07-4.921-28.071-2.557-35.943-3.72C606.785,138.656,598.111,134.223,588.507,136.257z"/>
			</g>
			<g>
				<path style="fill:#263238;" d="M606.803,140.615c0,0-5.13,4.742-2.072,6.181c4.796,2.256,13.643-4.101,13.643-4.101
					L606.803,140.615z"/>
				<g>
					<g>
						<path style="fill:#915A3F;" d="M626.843,133.51c3.899-8.037,1.571-17.215-5.199-20.499c-6.77-3.284-15.419,0.569-19.317,8.606
							c-3.899,8.037-1.571,17.215,5.199,20.499C614.295,145.401,622.944,141.548,626.843,133.51z"/>
						<path style="fill:#FFFFFF;" d="M607.526,142.118c1.89,0.915,3.931,1.277,5.97,1.138c-0.977-0.175-1.93-0.482-2.854-0.926
							c-6.415-3.116-8.622-11.815-4.928-19.437c3.7-7.622,11.898-11.271,18.314-8.16c0.161,0.08,0.327,0.161,0.481,0.251
							c-0.838-0.787-1.798-1.455-2.867-1.972c-6.768-3.281-15.418,0.571-19.317,8.608
							C598.427,129.656,600.753,138.831,607.526,142.118z"/>
						
							<path style="fill:none;stroke:#263238;stroke-width:2.5;stroke-linecap:round;stroke-linejoin:round;stroke-miterlimit:10;" d="
							M626.843,133.51c3.899-8.037,1.571-17.215-5.199-20.499c-6.77-3.284-15.419,0.569-19.317,8.606
							c-3.899,8.037-1.571,17.215,5.199,20.499C614.295,145.401,622.944,141.548,626.843,133.51z"/>
					</g>
					<path style="fill:#263238;" d="M612.103,112.599c0,0-0.794,16.198,13.489,23.111c0,0,6.296-9.218,1.208-17.824
						C621.712,109.28,612.103,112.599,612.103,112.599z"/>
				</g>
			</g>
		</g>
	</g>
</g>
</svg>
